<svg xmlns="http://www.w3.org/2000/svg" width="1760" height="1620" viewBox="0 0 1760 1620"><rect width="1760" height="1620" fill="#FFFFFF"/><text x="56" y="54" font-family="ui-sans-serif, -apple-system, 'Segoe UI', Roboto, 'Helvetica Neue', Arial, sans-serif" font-size="26" fill="#1B1F24" text-anchor="start" font-weight="700"><tspan x="56" dy="0">Full system schematic</tspan></text><text x="56" y="82" font-family="ui-sans-serif, -apple-system, 'Segoe UI', Roboto, 'Helvetica Neue', Arial, sans-serif" font-size="13" fill="#5B6470" text-anchor="start" font-weight="400"><tspan x="56" dy="0">Arduino Uno R3  ·  L298N dual H-bridge  ·  5-channel TCRT5000 array  ·  2 × TT gear motor  ·  2 × 9 V PP3</tspan></text><line x1="56" y1="102" x2="1704" y2="102" stroke="#DDE1E6" stroke-width="1.5" stroke-linecap="round"/><text x="1704" y="50" font-family="ui-sans-serif, -apple-system, 'Segoe UI', Roboto, 'Helvetica Neue', Arial, sans-serif" font-size="12.5" fill="#98A0AA" text-anchor="end" font-weight="400"><tspan x="1704" dy="0">Team CO Coders  ·  Lightning McQueen</tspan></text><text x="1704" y="70" font-family="ui-sans-serif, -apple-system, 'Segoe UI', Roboto, 'Helvetica Neue', Arial, sans-serif" font-size="11" fill="#98A0AA" text-anchor="end" font-weight="400"><tspan x="1704" dy="0">Robo Rumble 2026  ·  Robo Grand Prix</tspan></text><rect x="90" y="200" width="210" height="340" rx="9" fill="#E7F5EE" stroke="#1F7A4D" stroke-width="2.2"/><text x="195.0" y="228" font-family="ui-sans-serif, -apple-system, 'Segoe UI', Roboto, 'Helvetica Neue', Arial, sans-serif" font-size="15" fill="#1F7A4D" text-anchor="middle" font-weight="700"><tspan x="195.0" dy="0">U3   TCRT5000 ×5</tspan></text><text x="195.0" y="248" font-family="ui-sans-serif, -apple-system, 'Segoe UI', Roboto, 'Helvetica Neue', Arial, sans-serif" font-size="10.5" fill="#5B6470" text-anchor="middle" font-weight="400"><tspan x="195.0" dy="0">reflective array</tspan><tspan x="195.0" dy="14.175">20 mm pitch · 12 mm ride height</tspan></text><line x1="68" y1="295" x2="90" y2="295" stroke="#1B1F24" stroke-width="2.0" stroke-linecap="round"/><text x="100" y="299" font-family="ui-sans-serif, -apple-system, 'Segoe UI', Roboto, 'Helvetica Neue', Arial, sans-serif" font-size="11" fill="#1B1F24" text-anchor="start" font-weight="400"><tspan x="100" dy="0">Vcc</tspan></text><line x1="68" y1="510" x2="90" y2="510" stroke="#1B1F24" stroke-width="2.0" stroke-linecap="round"/><text x="100" y="514" font-family="ui-sans-serif, -apple-system, 'Segoe UI', Roboto, 'Helvetica Neue', Arial, sans-serif" font-size="11" fill="#1B1F24" text-anchor="start" font-weight="400"><tspan x="100" dy="0">GND</tspan></text><line x1="300" y1="330" x2="322" y2="330" stroke="#1B1F24" stroke-width="2.0" stroke-linecap="round"/><text x="290" y="334" font-family="ui-sans-serif, -apple-system, 'Segoe UI', Roboto, 'Helvetica Neue', Arial, sans-serif" font-size="11" fill="#1B1F24" text-anchor="end" font-weight="400"><tspan x="290" dy="0">OUT1</tspan></text><line x1="300" y1="370" x2="322" y2="370" stroke="#1B1F24" stroke-width="2.0" stroke-linecap="round"/><text x="290" y="374" font-family="ui-sans-serif, -apple-system, 'Segoe UI', Roboto, 'Helvetica Neue', Arial, sans-serif" font-size="11" fill="#1B1F24" text-anchor="end" font-weight="400"><tspan x="290" dy="0">OUT2</tspan></text><line x1="300" y1="410" x2="322" y2="410" stroke="#1B1F24" stroke-width="2.0" stroke-linecap="round"/><text x="290" y="414" font-family="ui-sans-serif, -apple-system, 'Segoe UI', Roboto, 'Helvetica Neue', Arial, sans-serif" font-size="11" fill="#1B1F24" text-anchor="end" font-weight="400"><tspan x="290" dy="0">OUT3</tspan></text><line x1="300" y1="450" x2="322" y2="450" stroke="#1B1F24" stroke-width="2.0" stroke-linecap="round"/><text x="290" y="454" font-family="ui-sans-serif, -apple-system, 'Segoe UI', Roboto, 'Helvetica Neue', Arial, sans-serif" font-size="11" fill="#1B1F24" text-anchor="end" font-weight="400"><tspan x="290" dy="0">OUT4</tspan></text><line x1="300" y1="490" x2="322" y2="490" stroke="#1B1F24" stroke-width="2.0" stroke-linecap="round"/><text x="290" y="494" font-family="ui-sans-serif, -apple-system, 'Segoe UI', Roboto, 'Helvetica Neue', Arial, sans-serif" font-size="11" fill="#1B1F24" text-anchor="end" font-weight="400"><tspan x="290" dy="0">OUT5</tspan></text><rect x="620" y="170" width="250" height="450" rx="9" fill="#E9F0F8" stroke="#2C6FA8" stroke-width="2.2"/><text x="745.0" y="198" font-family="ui-sans-serif, -apple-system, 'Segoe UI', Roboto, 'Helvetica Neue', Arial, sans-serif" font-size="15" fill="#2C6FA8" text-anchor="middle" font-weight="700"><tspan x="745.0" dy="0">U2   Arduino Uno R3</tspan></text><text x="745.0" y="218" font-family="ui-sans-serif, -apple-system, 'Segoe UI', Roboto, 'Helvetica Neue', Arial, sans-serif" font-size="10.5" fill="#5B6470" text-anchor="middle" font-weight="400"><tspan x="745.0" dy="0">ATmega328P · 16 MHz</tspan></text><line x1="598" y1="300" x2="620" y2="300" stroke="#1B1F24" stroke-width="2.0" stroke-linecap="round"/><text x="630" y="304" font-family="ui-sans-serif, -apple-system, 'Segoe UI', Roboto, 'Helvetica Neue', Arial, sans-serif" font-size="11" fill="#1B1F24" text-anchor="start" font-weight="400"><tspan x="630" dy="0">A0</tspan></text><line x1="598" y1="340" x2="620" y2="340" stroke="#1B1F24" stroke-width="2.0" stroke-linecap="round"/><text x="630" y="344" font-family="ui-sans-serif, -apple-system, 'Segoe UI', Roboto, 'Helvetica Neue', Arial, sans-serif" font-size="11" fill="#1B1F24" text-anchor="start" font-weight="400"><tspan x="630" dy="0">A1</tspan></text><line x1="598" y1="380" x2="620" y2="380" stroke="#1B1F24" stroke-width="2.0" stroke-linecap="round"/><text x="630" y="384" font-family="ui-sans-serif, -apple-system, 'Segoe UI', Roboto, 'Helvetica Neue', Arial, sans-serif" font-size="11" fill="#1B1F24" text-anchor="start" font-weight="400"><tspan x="630" dy="0">A2</tspan></text><line x1="598" y1="420" x2="620" y2="420" stroke="#1B1F24" stroke-width="2.0" stroke-linecap="round"/><text x="630" y="424" font-family="ui-sans-serif, -apple-system, 'Segoe UI', Roboto, 'Helvetica Neue', Arial, sans-serif" font-size="11" fill="#1B1F24" text-anchor="start" font-weight="400"><tspan x="630" dy="0">A3</tspan></text><line x1="598" y1="460" x2="620" y2="460" stroke="#1B1F24" stroke-width="2.0" stroke-linecap="round"/><text x="630" y="464" font-family="ui-sans-serif, -apple-system, 'Segoe UI', Roboto, 'Helvetica Neue', Arial, sans-serif" font-size="11" fill="#1B1F24" text-anchor="start" font-weight="400"><tspan x="630" dy="0">A4</tspan></text><line x1="598" y1="535" x2="620" y2="535" stroke="#1B1F24" stroke-width="2.0" stroke-linecap="round"/><text x="630" y="539" font-family="ui-sans-serif, -apple-system, 'Segoe UI', Roboto, 'Helvetica Neue', Arial, sans-serif" font-size="11" fill="#1B1F24" text-anchor="start" font-weight="400"><tspan x="630" dy="0">5V</tspan></text><line x1="598" y1="580" x2="620" y2="580" stroke="#1B1F24" stroke-width="2.0" stroke-linecap="round"/><text x="630" y="584" font-family="ui-sans-serif, -apple-system, 'Segoe UI', Roboto, 'Helvetica Neue', Arial, sans-serif" font-size="11" fill="#1B1F24" text-anchor="start" font-weight="400"><tspan x="630" dy="0">GND</tspan></text><line x1="870" y1="300" x2="892" y2="300" stroke="#1B1F24" stroke-width="2.0" stroke-linecap="round"/><text x="860" y="304" font-family="ui-sans-serif, -apple-system, 'Segoe UI', Roboto, 'Helvetica Neue', Arial, sans-serif" font-size="11" fill="#1B1F24" text-anchor="end" font-weight="400"><tspan x="860" dy="0">D2</tspan></text><line x1="870" y1="340" x2="892" y2="340" stroke="#1B1F24" stroke-width="2.0" stroke-linecap="round"/><text x="860" y="344" font-family="ui-sans-serif, -apple-system, 'Segoe UI', Roboto, 'Helvetica Neue', Arial, sans-serif" font-size="11" fill="#1B1F24" text-anchor="end" font-weight="400"><tspan x="860" dy="0">D4</tspan></text><line x1="870" y1="380" x2="892" y2="380" stroke="#1B1F24" stroke-width="2.0" stroke-linecap="round"/><text x="860" y="384" font-family="ui-sans-serif, -apple-system, 'Segoe UI', Roboto, 'Helvetica Neue', Arial, sans-serif" font-size="11" fill="#1B1F24" text-anchor="end" font-weight="400"><tspan x="860" dy="0">D9~</tspan></text><line x1="870" y1="420" x2="892" y2="420" stroke="#1B1F24" stroke-width="2.0" stroke-linecap="round"/><text x="860" y="424" font-family="ui-sans-serif, -apple-system, 'Segoe UI', Roboto, 'Helvetica Neue', Arial, sans-serif" font-size="11" fill="#1B1F24" text-anchor="end" font-weight="400"><tspan x="860" dy="0">D7</tspan></text><line x1="870" y1="460" x2="892" y2="460" stroke="#1B1F24" stroke-width="2.0" stroke-linecap="round"/><text x="860" y="464" font-family="ui-sans-serif, -apple-system, 'Segoe UI', Roboto, 'Helvetica Neue', Arial, sans-serif" font-size="11" fill="#1B1F24" text-anchor="end" font-weight="400"><tspan x="860" dy="0">D8</tspan></text><line x1="870" y1="500" x2="892" y2="500" stroke="#1B1F24" stroke-width="2.0" stroke-linecap="round"/><text x="860" y="504" font-family="ui-sans-serif, -apple-system, 'Segoe UI', Roboto, 'Helvetica Neue', Arial, sans-serif" font-size="11" fill="#1B1F24" text-anchor="end" font-weight="400"><tspan x="860" dy="0">D10~</tspan></text><line x1="690" y1="620" x2="690" y2="642" stroke="#1B1F24" stroke-width="2.0" stroke-linecap="round"/><text x="690" y="610" font-family="ui-sans-serif, -apple-system, 'Segoe UI', Roboto, 'Helvetica Neue', Arial, sans-serif" font-size="11" fill="#1B1F24" text-anchor="middle" font-weight="400"><tspan x="690" dy="0">D12</tspan></text><line x1="745" y1="620" x2="745" y2="642" stroke="#1B1F24" stroke-width="2.0" stroke-linecap="round"/><text x="745" y="610" font-family="ui-sans-serif, -apple-system, 'Segoe UI', Roboto, 'Helvetica Neue', Arial, sans-serif" font-size="11" fill="#1B1F24" text-anchor="middle" font-weight="400"><tspan x="745" dy="0">D13</tspan></text><line x1="800" y1="620" x2="800" y2="642" stroke="#1B1F24" stroke-width="2.0" stroke-linecap="round"/><text x="800" y="610" font-family="ui-sans-serif, -apple-system, 'Segoe UI', Roboto, 'Helvetica Neue', Arial, sans-serif" font-size="11" fill="#1B1F24" text-anchor="middle" font-weight="400"><tspan x="800" dy="0">D3</tspan></text><rect x="1160" y="170" width="230" height="450" rx="9" fill="#FFF6E0" stroke="#9A6800" stroke-width="2.2"/><text x="1275.0" y="198" font-family="ui-sans-serif, -apple-system, 'Segoe UI', Roboto, 'Helvetica Neue', Arial, sans-serif" font-size="15" fill="#9A6800" text-anchor="middle" font-weight="700"><tspan x="1275.0" dy="0">U1   L298N</tspan></text><text x="1275.0" y="218" font-family="ui-sans-serif, -apple-system, 'Segoe UI', Roboto, 'Helvetica Neue', Arial, sans-serif" font-size="10.5" fill="#5B6470" text-anchor="middle" font-weight="400"><tspan x="1275.0" dy="0">dual H-bridge · 2 A / channel</tspan></text><line x1="1138" y1="300" x2="1160" y2="300" stroke="#1B1F24" stroke-width="2.0" stroke-linecap="round"/><text x="1170" y="304" font-family="ui-sans-serif, -apple-system, 'Segoe UI', Roboto, 'Helvetica Neue', Arial, sans-serif" font-size="11" fill="#1B1F24" text-anchor="start" font-weight="400"><tspan x="1170" dy="0">IN1</tspan></text><line x1="1138" y1="340" x2="1160" y2="340" stroke="#1B1F24" stroke-width="2.0" stroke-linecap="round"/><text x="1170" y="344" font-family="ui-sans-serif, -apple-system, 'Segoe UI', Roboto, 'Helvetica Neue', Arial, sans-serif" font-size="11" fill="#1B1F24" text-anchor="start" font-weight="400"><tspan x="1170" dy="0">IN2</tspan></text><line x1="1138" y1="380" x2="1160" y2="380" stroke="#1B1F24" stroke-width="2.0" stroke-linecap="round"/><text x="1170" y="384" font-family="ui-sans-serif, -apple-system, 'Segoe UI', Roboto, 'Helvetica Neue', Arial, sans-serif" font-size="11" fill="#1B1F24" text-anchor="start" font-weight="400"><tspan x="1170" dy="0">ENA</tspan></text><line x1="1138" y1="420" x2="1160" y2="420" stroke="#1B1F24" stroke-width="2.0" stroke-linecap="round"/><text x="1170" y="424" font-family="ui-sans-serif, -apple-system, 'Segoe UI', Roboto, 'Helvetica Neue', Arial, sans-serif" font-size="11" fill="#1B1F24" text-anchor="start" font-weight="400"><tspan x="1170" dy="0">IN3</tspan></text><line x1="1138" y1="460" x2="1160" y2="460" stroke="#1B1F24" stroke-width="2.0" stroke-linecap="round"/><text x="1170" y="464" font-family="ui-sans-serif, -apple-system, 'Segoe UI', Roboto, 'Helvetica Neue', Arial, sans-serif" font-size="11" fill="#1B1F24" text-anchor="start" font-weight="400"><tspan x="1170" dy="0">IN4</tspan></text><line x1="1138" y1="500" x2="1160" y2="500" stroke="#1B1F24" stroke-width="2.0" stroke-linecap="round"/><text x="1170" y="504" font-family="ui-sans-serif, -apple-system, 'Segoe UI', Roboto, 'Helvetica Neue', Arial, sans-serif" font-size="11" fill="#1B1F24" text-anchor="start" font-weight="400"><tspan x="1170" dy="0">ENB</tspan></text><line x1="1138" y1="560" x2="1160" y2="560" stroke="#1B1F24" stroke-width="2.0" stroke-linecap="round"/><text x="1170" y="564" font-family="ui-sans-serif, -apple-system, 'Segoe UI', Roboto, 'Helvetica Neue', Arial, sans-serif" font-size="11" fill="#1B1F24" text-anchor="start" font-weight="400"><tspan x="1170" dy="0">+12V</tspan></text><line x1="1138" y1="595" x2="1160" y2="595" stroke="#1B1F24" stroke-width="2.0" stroke-linecap="round"/><text x="1170" y="599" font-family="ui-sans-serif, -apple-system, 'Segoe UI', Roboto, 'Helvetica Neue', Arial, sans-serif" font-size="11" fill="#1B1F24" text-anchor="start" font-weight="400"><tspan x="1170" dy="0">GND</tspan></text><line x1="1390" y1="290" x2="1412" y2="290" stroke="#1B1F24" stroke-width="2.0" stroke-linecap="round"/><text x="1380" y="294" font-family="ui-sans-serif, -apple-system, 'Segoe UI', Roboto, 'Helvetica Neue', Arial, sans-serif" font-size="11" fill="#1B1F24" text-anchor="end" font-weight="400"><tspan x="1380" dy="0">OUT1</tspan></text><line x1="1390" y1="330" x2="1412" y2="330" stroke="#1B1F24" stroke-width="2.0" stroke-linecap="round"/><text x="1380" y="334" font-family="ui-sans-serif, -apple-system, 'Segoe UI', Roboto, 'Helvetica Neue', Arial, sans-serif" font-size="11" fill="#1B1F24" text-anchor="end" font-weight="400"><tspan x="1380" dy="0">OUT2</tspan></text><line x1="1390" y1="410" x2="1412" y2="410" stroke="#1B1F24" stroke-width="2.0" stroke-linecap="round"/><text x="1380" y="414" font-family="ui-sans-serif, -apple-system, 'Segoe UI', Roboto, 'Helvetica Neue', Arial, sans-serif" font-size="11" fill="#1B1F24" text-anchor="end" font-weight="400"><tspan x="1380" dy="0">OUT3</tspan></text><line x1="1390" y1="450" x2="1412" y2="450" stroke="#1B1F24" stroke-width="2.0" stroke-linecap="round"/><text x="1380" y="454" font-family="ui-sans-serif, -apple-system, 'Segoe UI', Roboto, 'Helvetica Neue', Arial, sans-serif" font-size="11" fill="#1B1F24" text-anchor="end" font-weight="400"><tspan x="1380" dy="0">OUT4</tspan></text><line x1="1390" y1="540" x2="1412" y2="540" stroke="#1B1F24" stroke-width="2.0" stroke-linecap="round"/><text x="1380" y="544" font-family="ui-sans-serif, -apple-system, 'Segoe UI', Roboto, 'Helvetica Neue', Arial, sans-serif" font-size="11" fill="#1B1F24" text-anchor="end" font-weight="400"><tspan x="1380" dy="0">+5V</tspan></text><polyline points="322,330 370,330 370,300 598,300" fill="none" stroke="#1F7A4D" stroke-width="1.8" stroke-linejoin="round" stroke-linecap="round"/><polyline points="322,370 388,370 388,340 598,340" fill="none" stroke="#1F7A4D" stroke-width="1.8" stroke-linejoin="round" stroke-linecap="round"/><polyline points="322,410 406,410 406,380 598,380" fill="none" stroke="#1F7A4D" stroke-width="1.8" stroke-linejoin="round" stroke-linecap="round"/><polyline points="322,450 424,450 424,420 598,420" fill="none" stroke="#1F7A4D" stroke-width="1.8" stroke-linejoin="round" stroke-linecap="round"/><polyline points="322,490 442,490 442,460 598,460" fill="none" stroke="#1F7A4D" stroke-width="1.8" stroke-linejoin="round" stroke-linecap="round"/><text x="360" y="178" font-family="ui-sans-serif, -apple-system, 'Segoe UI', Roboto, 'Helvetica Neue', Arial, sans-serif" font-size="11.5" fill="#1F7A4D" text-anchor="start" font-weight="600"><tspan x="360" dy="0">5 analog channels → A0 … A4</tspan></text><polyline points="892,300 930,300 930,300 1138,300" fill="none" stroke="#2C6FA8" stroke-width="1.8" stroke-linejoin="round" stroke-linecap="round"/><polyline points="892,340 948,340 948,340 1138,340" fill="none" stroke="#2C6FA8" stroke-width="1.8" stroke-linejoin="round" stroke-linecap="round"/><polyline points="892,380 966,380 966,380 1138,380" fill="none" stroke="#2C6FA8" stroke-width="1.8" stroke-linejoin="round" stroke-linecap="round"/><polyline points="892,420 984,420 984,420 1138,420" fill="none" stroke="#2C6FA8" stroke-width="1.8" stroke-linejoin="round" stroke-linecap="round"/><polyline points="892,460 1002,460 1002,460 1138,460" fill="none" stroke="#2C6FA8" stroke-width="1.8" stroke-linejoin="round" stroke-linecap="round"/><polyline points="892,500 1020,500 1020,500 1138,500" fill="none" stroke="#2C6FA8" stroke-width="1.8" stroke-linejoin="round" stroke-linecap="round"/><text x="925" y="150" font-family="ui-sans-serif, -apple-system, 'Segoe UI', Roboto, 'Helvetica Neue', Arial, sans-serif" font-size="11.5" fill="#2C6FA8" text-anchor="start" font-weight="400"><tspan x="925" dy="0">2 direction pins + 1 PWM enable per motor —</tspan><tspan x="925" dy="15.525">ENA/ENB on Timer1 (D9, D10), away from millis()</tspan></text><polyline points="1412,290 1530,290 1530,290.0" fill="none" stroke="#1B1F24" stroke-width="2.0" stroke-linejoin="round" stroke-linecap="round"/><polyline points="1412,330 1530,330 1530,330.0" fill="none" stroke="#1B1F24" stroke-width="2.0" stroke-linejoin="round" stroke-linecap="round"/><line x1="1530" y1="290.0" x2="1560" y2="290.0" stroke="#1B1F24" stroke-width="2.0" stroke-linecap="round"/><line x1="1530" y1="330.0" x2="1560" y2="330.0" stroke="#1B1F24" stroke-width="2.0" stroke-linecap="round"/><circle cx="1600" cy="310.0" r="28" fill="#FFFFFF" stroke="#1B1F24" stroke-width="2.2"/><text x="1600" y="317.0" font-family="ui-sans-serif, -apple-system, 'Segoe UI', Roboto, 'Helvetica Neue', Arial, sans-serif" font-size="19" fill="#1B1F24" text-anchor="middle" font-weight="700"><tspan x="1600" dy="0">M</tspan></text><text x="1600" y="360.0" font-family="ui-sans-serif, -apple-system, 'Segoe UI', Roboto, 'Helvetica Neue', Arial, sans-serif" font-size="11" fill="#1B1F24" text-anchor="middle" font-weight="400"><tspan x="1600" dy="0">M1   left  ·  TT 1:48</tspan></text><line x1="1560" y1="290.0" x2="1572" y2="290.0" stroke="#1B1F24" stroke-width="2.0" stroke-linecap="round"/><line x1="1560" y1="330.0" x2="1572" y2="330.0" stroke="#1B1F24" stroke-width="2.0" stroke-linecap="round"/><polyline points="1412,410 1530,410 1530,410.0" fill="none" stroke="#1B1F24" stroke-width="2.0" stroke-linejoin="round" stroke-linecap="round"/><polyline points="1412,450 1530,450 1530,450.0" fill="none" stroke="#1B1F24" stroke-width="2.0" stroke-linejoin="round" stroke-linecap="round"/><line x1="1530" y1="410.0" x2="1560" y2="410.0" stroke="#1B1F24" stroke-width="2.0" stroke-linecap="round"/><line x1="1530" y1="450.0" x2="1560" y2="450.0" stroke="#1B1F24" stroke-width="2.0" stroke-linecap="round"/><circle cx="1600" cy="430.0" r="28" fill="#FFFFFF" stroke="#1B1F24" stroke-width="2.2"/><text x="1600" y="437.0" font-family="ui-sans-serif, -apple-system, 'Segoe UI', Roboto, 'Helvetica Neue', Arial, sans-serif" font-size="19" fill="#1B1F24" text-anchor="middle" font-weight="700"><tspan x="1600" dy="0">M</tspan></text><text x="1600" y="480.0" font-family="ui-sans-serif, -apple-system, 'Segoe UI', Roboto, 'Helvetica Neue', Arial, sans-serif" font-size="11" fill="#1B1F24" text-anchor="middle" font-weight="400"><tspan x="1600" dy="0">M2   right  ·  TT 1:48</tspan></text><line x1="1560" y1="410.0" x2="1572" y2="410.0" stroke="#1B1F24" stroke-width="2.0" stroke-linecap="round"/><line x1="1560" y1="450.0" x2="1572" y2="450.0" stroke="#1B1F24" stroke-width="2.0" stroke-linecap="round"/><polyline points="1412,540 1690,540 1690,132 340,132" fill="none" stroke="#1F7A4D" stroke-width="2.2" stroke-linejoin="round" stroke-linecap="round"/><circle cx="340" cy="132" r="4.5" fill="#1F7A4D"/><polyline points="340,132 340,535 598,535" fill="none" stroke="#1F7A4D" stroke-width="2.2" stroke-linejoin="round" stroke-linecap="round"/><polyline points="340,132 58,132 58,295 68,295" fill="none" stroke="#1F7A4D" stroke-width="2.2" stroke-linejoin="round" stroke-linecap="round"/><text x="760" y="118" font-family="ui-sans-serif, -apple-system, 'Segoe UI', Roboto, 'Helvetica Neue', Arial, sans-serif" font-size="12.5" fill="#1F7A4D" text-anchor="start" font-weight="600"><tspan x="760" dy="0">+5 V LOGIC RAIL   (U1 on-board 78M05)</tspan></text><polyline points="690,642 690,682 500,682 500,712" fill="none" stroke="#1B1F24" stroke-width="2.0" stroke-linejoin="round" stroke-linecap="round"/><line x1="500" y1="712" x2="500" y2="730" stroke="#1B1F24" stroke-width="2.0" stroke-linecap="round"/><circle cx="500" cy="730" r="4" fill="#FFFFFF" stroke="#1B1F24" stroke-width="2.0"/><circle cx="500" cy="754" r="4" fill="#FFFFFF" stroke="#1B1F24" stroke-width="2.0"/><line x1="485" y1="735" x2="515" y2="735" stroke="#1B1F24" stroke-width="2.4" stroke-linecap="round"/><line x1="500" y1="735" x2="500" y2="722" stroke="#1B1F24" stroke-width="2.0" stroke-linecap="round"/><line x1="500" y1="754" x2="500" y2="772" stroke="#1B1F24" stroke-width="2.0" stroke-linecap="round"/><text x="500" y="792" font-family="ui-sans-serif, -apple-system, 'Segoe UI', Roboto, 'Helvetica Neue', Arial, sans-serif" font-size="11" fill="#1B1F24" text-anchor="middle" font-weight="400"><tspan x="500" dy="0">SW3   ARM</tspan><tspan x="500" dy="14.850000000000001">momentary, INPUT_PULLUP</tspan><tspan x="500" dy="14.850000000000001">the only human input before a run</tspan></text><line x1="500" y1="772" x2="500" y2="862" stroke="#1B1F24" stroke-width="2.0" stroke-linecap="round"/><line x1="500" y1="862" x2="500" y2="876" stroke="#1B1F24" stroke-width="2.0" stroke-linecap="round"/><line x1="488.0" y1="876" x2="512.0" y2="876" stroke="#1B1F24" stroke-width="2.4" stroke-linecap="round"/><line x1="492.5" y1="882" x2="507.5" y2="882" stroke="#1B1F24" stroke-width="2.4" stroke-linecap="round"/><line x1="496.5" y1="888" x2="503.5" y2="888" stroke="#1B1F24" stroke-width="2.4" stroke-linecap="round"/><polyline points="745,642 745,668 700,668 700,698" fill="none" stroke="#1B1F24" stroke-width="2.0" stroke-linejoin="round" stroke-linecap="round"/><line x1="700" y1="698" x2="700" y2="708" stroke="#1B1F24" stroke-width="2.0" stroke-linecap="round"/><rect x="691" y="708" width="18" height="40" rx="3" fill="none" stroke="#1B1F24" stroke-width="2.0"/><line x1="700" y1="748" x2="700" y2="758" stroke="#1B1F24" stroke-width="2.0" stroke-linecap="round"/><text x="717" y="732" font-family="ui-sans-serif, -apple-system, 'Segoe UI', Roboto, 'Helvetica Neue', Arial, sans-serif" font-size="11" fill="#1B1F24" text-anchor="start" font-weight="400"><tspan x="717" dy="0">R2   220 Ω</tspan></text><line x1="700" y1="768" x2="700" y2="785" stroke="#1B1F24" stroke-width="2.0" stroke-linecap="round"/><polygon points="687,785 713,785 700,806" fill="none" stroke="#9A6800" stroke-width="2"/><line x1="686" y1="806" x2="714" y2="806" stroke="#9A6800" stroke-width="2.4" stroke-linecap="round"/><line x1="700" y1="806" x2="700" y2="828" stroke="#9A6800" stroke-width="2.0" stroke-linecap="round"/><polyline points="716,786 728,774" fill="none" stroke="#9A6800" stroke-width="1.6" stroke-linejoin="round" stroke-linecap="round"/><polyline points="728,774 722,776 726,780" fill="none" stroke="#9A6800" stroke-width="1.4" stroke-linejoin="round" stroke-linecap="round"/><polyline points="721,794 733,782" fill="none" stroke="#9A6800" stroke-width="1.6" stroke-linejoin="round" stroke-linecap="round"/><polyline points="733,782 727,784 731,788" fill="none" stroke="#9A6800" stroke-width="1.4" stroke-linejoin="round" stroke-linecap="round"/><text x="740" y="802" font-family="ui-sans-serif, -apple-system, 'Segoe UI', Roboto, 'Helvetica Neue', Arial, sans-serif" font-size="11" fill="#9A6800" text-anchor="start" font-weight="400"><tspan x="740" dy="0">D2   status</tspan></text><line x1="700" y1="828" x2="700" y2="858" stroke="#1B1F24" stroke-width="2.0" stroke-linecap="round"/><line x1="700" y1="858" x2="700" y2="872" stroke="#1B1F24" stroke-width="2.0" stroke-linecap="round"/><line x1="688.0" y1="872" x2="712.0" y2="872" stroke="#1B1F24" stroke-width="2.4" stroke-linecap="round"/><line x1="692.5" y1="878" x2="707.5" y2="878" stroke="#1B1F24" stroke-width="2.4" stroke-linecap="round"/><line x1="696.5" y1="884" x2="703.5" y2="884" stroke="#1B1F24" stroke-width="2.4" stroke-linecap="round"/><polyline points="800,642 800,682 880,682 880,712" fill="none" stroke="#1B1F24" stroke-width="2.0" stroke-linejoin="round" stroke-linecap="round"/><line x1="880" y1="712" x2="880" y2="728" stroke="#1B1F24" stroke-width="2.0" stroke-linecap="round"/><rect x="872" y="728" width="16" height="28" rx="2" fill="none" stroke="#1B1F24" stroke-width="2.0"/><polygon points="888,728 906,716 906,768 888,756" fill="none" stroke="#1B1F24" stroke-width="2"/><line x1="880" y1="756" x2="880" y2="772" stroke="#1B1F24" stroke-width="2.0" stroke-linecap="round"/><text x="916" y="746" font-family="ui-sans-serif, -apple-system, 'Segoe UI', Roboto, 'Helvetica Neue', Arial, sans-serif" font-size="11" fill="#1B1F24" text-anchor="start" font-weight="400"><tspan x="916" dy="0">LS1   piezo</tspan></text><line x1="880" y1="772" x2="880" y2="858" stroke="#1B1F24" stroke-width="2.0" stroke-linecap="round"/><line x1="880" y1="858" x2="880" y2="872" stroke="#1B1F24" stroke-width="2.0" stroke-linecap="round"/><line x1="868.0" y1="872" x2="892.0" y2="872" stroke="#1B1F24" stroke-width="2.4" stroke-linecap="round"/><line x1="872.5" y1="878" x2="887.5" y2="878" stroke="#1B1F24" stroke-width="2.4" stroke-linecap="round"/><line x1="876.5" y1="884" x2="883.5" y2="884" stroke="#1B1F24" stroke-width="2.4" stroke-linecap="round"/><line x1="156" y1="1080" x2="178" y2="1080" stroke="#1B1F24" stroke-width="2.0" stroke-linecap="round"/><line x1="178" y1="1064" x2="178" y2="1096" stroke="#1B1F24" stroke-width="2.6" stroke-linecap="round"/><line x1="186" y1="1072" x2="186" y2="1088" stroke="#1B1F24" stroke-width="2.6" stroke-linecap="round"/><line x1="194" y1="1064" x2="194" y2="1096" stroke="#1B1F24" stroke-width="2.6" stroke-linecap="round"/><line x1="202" y1="1072" x2="202" y2="1088" stroke="#1B1F24" stroke-width="2.6" stroke-linecap="round"/><line x1="202" y1="1080" x2="224" y2="1080" stroke="#1B1F24" stroke-width="2.0" stroke-linecap="round"/><text x="190" y="1024" font-family="ui-sans-serif, -apple-system, 'Segoe UI', Roboto, 'Helvetica Neue', Arial, sans-serif" font-size="11" fill="#1B1F24" text-anchor="middle" font-weight="400"><tspan x="190" dy="0">BT1 · BT2</tspan><tspan x="190" dy="14.850000000000001">2 × 9 V PP3</tspan></text><line x1="224" y1="1080" x2="268" y2="1080" stroke="#1B1F24" stroke-width="2.0" stroke-linecap="round"/><line x1="268" y1="1080" x2="280" y2="1080" stroke="#1B1F24" stroke-width="2.0" stroke-linecap="round"/><rect x="280" y="1069" width="48" height="22" rx="4" fill="none" stroke="#1B1F24" stroke-width="2.0"/><polyline points="280,1080 291,1073 304,1087 317,1073 328,1080" fill="none" stroke="#1B1F24" stroke-width="1.8" stroke-linejoin="round" stroke-linecap="round"/><line x1="328" y1="1080" x2="340" y2="1080" stroke="#1B1F24" stroke-width="2.0" stroke-linecap="round"/><text x="304" y="1114" font-family="ui-sans-serif, -apple-system, 'Segoe UI', Roboto, 'Helvetica Neue', Arial, sans-serif" font-size="11" fill="#1B1F24" text-anchor="middle" font-weight="400"><tspan x="304" dy="0">F1   2 A polyfuse</tspan></text><line x1="340" y1="1080" x2="396" y2="1080" stroke="#1B1F24" stroke-width="2.0" stroke-linecap="round"/><line x1="396" y1="1080" x2="423" y2="1080" stroke="#C4211D" stroke-width="2.8" stroke-linecap="round"/><circle cx="423" cy="1080" r="4.5" fill="#FFFFFF" stroke="#C4211D" stroke-width="2.4"/><circle cx="457" cy="1080" r="4.5" fill="#FFFFFF" stroke="#C4211D" stroke-width="2.4"/><line x1="423" y1="1075.5" x2="457" y2="1075.5" stroke="#C4211D" stroke-width="2.8" stroke-linecap="round"/><line x1="457" y1="1080" x2="484" y2="1080" stroke="#C4211D" stroke-width="2.8" stroke-linecap="round"/><line x1="440" y1="1075.5" x2="440" y2="1052" stroke="#C4211D" stroke-width="2.2" stroke-linecap="round" stroke-dasharray="5,4"/><rect x="416" y="1036" width="48" height="16" rx="8" fill="#C4211D"/><text x="440" y="1024" font-family="ui-sans-serif, -apple-system, 'Segoe UI', Roboto, 'Helvetica Neue', Arial, sans-serif" font-size="15" fill="#C4211D" text-anchor="middle" font-weight="700"><tspan x="440" dy="0">SW1   E-STOP</tspan></text><text x="440" y="1114" font-family="ui-sans-serif, -apple-system, 'Segoe UI', Roboto, 'Helvetica Neue', Arial, sans-serif" font-size="10.5" fill="#C4211D" text-anchor="middle" font-weight="400"><tspan x="440" dy="0">normally closed · latching</tspan></text><line x1="484" y1="1080" x2="552" y2="1080" stroke="#1B1F24" stroke-width="2.0" stroke-linecap="round"/><line x1="552" y1="1080" x2="577" y2="1080" stroke="#2C6FA8" stroke-width="2.8" stroke-linecap="round"/><circle cx="577" cy="1080" r="4.5" fill="#FFFFFF" stroke="#2C6FA8" stroke-width="2.4"/><circle cx="611" cy="1080" r="4.5" fill="#FFFFFF" stroke="#2C6FA8" stroke-width="2.4"/><line x1="580" y1="1078" x2="610" y2="1062" stroke="#2C6FA8" stroke-width="2.8" stroke-linecap="round"/><line x1="611" y1="1080" x2="636" y2="1080" stroke="#2C6FA8" stroke-width="2.8" stroke-linecap="round"/><text x="594" y="1044" font-family="ui-sans-serif, -apple-system, 'Segoe UI', Roboto, 'Helvetica Neue', Arial, sans-serif" font-size="15" fill="#2C6FA8" text-anchor="middle" font-weight="700"><tspan x="594" dy="0">SW2   ON/OFF</tspan></text><text x="594" y="1114" font-family="ui-sans-serif, -apple-system, 'Segoe UI', Roboto, 'Helvetica Neue', Arial, sans-serif" font-size="10.5" fill="#2C6FA8" text-anchor="middle" font-weight="400"><tspan x="594" dy="0">SPST rocker</tspan></text><line x1="636" y1="1080" x2="1110" y2="1080" stroke="#1B1F24" stroke-width="2.0" stroke-linecap="round"/><polyline points="1110,1080 1110,560 1138,560" fill="none" stroke="#1B1F24" stroke-width="2.4" stroke-linejoin="round" stroke-linecap="round"/><text x="1120" y="1064" font-family="ui-sans-serif, -apple-system, 'Segoe UI', Roboto, 'Helvetica Neue', Arial, sans-serif" font-size="11.5" fill="#5B6470" text-anchor="start" font-weight="400"><tspan x="1120" dy="0">switched +9 V → U1 +12V terminal</tspan></text><polyline points="156,1080 156,1200 1290,1200" fill="none" stroke="#1B1F24" stroke-width="2.0" stroke-linejoin="round" stroke-linecap="round"/><line x1="700" y1="1200" x2="700" y2="1214" stroke="#1B1F24" stroke-width="2.0" stroke-linecap="round"/><line x1="688.0" y1="1214" x2="712.0" y2="1214" stroke="#1B1F24" stroke-width="2.4" stroke-linecap="round"/><line x1="692.5" y1="1220" x2="707.5" y2="1220" stroke="#1B1F24" stroke-width="2.4" stroke-linecap="round"/><line x1="696.5" y1="1226" x2="703.5" y2="1226" stroke="#1B1F24" stroke-width="2.4" stroke-linecap="round"/><polyline points="68,510 32,510 32,1200" fill="none" stroke="#1B1F24" stroke-width="1.8" stroke-linejoin="round" stroke-linecap="round"/><circle cx="32" cy="1200" r="4.5" fill="#1B1F24"/><polyline points="598,580 358,580 358,1200" fill="none" stroke="#1B1F24" stroke-width="1.8" stroke-linejoin="round" stroke-linecap="round"/><circle cx="358" cy="1200" r="4.5" fill="#1B1F24"/><polyline points="1138,595 1102,595 1102,1200" fill="none" stroke="#1B1F24" stroke-width="1.8" stroke-linejoin="round" stroke-linecap="round"/><circle cx="1102" cy="1200" r="4.5" fill="#1B1F24"/><text x="740" y="1186" font-family="ui-sans-serif, -apple-system, 'Segoe UI', Roboto, 'Helvetica Neue', Arial, sans-serif" font-size="11" fill="#5B6470" text-anchor="start" font-weight="400"><tspan x="740" dy="0">star ground — every return ties at battery negative</tspan></text><rect x="60" y="1290" width="1640" height="236" rx="9" fill="#FCEAE9" stroke="#C4211D" stroke-width="2.0"/><text x="75" y="1320" font-family="ui-sans-serif, -apple-system, 'Segoe UI', Roboto, 'Helvetica Neue', Arial, sans-serif" font-size="13.5" fill="#C4211D" text-anchor="start" font-weight="700"><tspan x="75" dy="0">MANDATORY SAFETY DEVICES  —  Universal Design Constraints 3 and 4</tspan></text><text x="75" y="1346" font-family="ui-sans-serif, -apple-system, 'Segoe UI', Roboto, 'Helvetica Neue', Arial, sans-serif" font-size="11.5" fill="#C4211D" text-anchor="start" font-weight="400"><tspan x="75" dy="0">SW1 (E-Stop, 22 mm latching mushroom, normally closed) and SW2 (ON/OFF rocker) are wired in</tspan><tspan x="75" dy="17.94">series in the battery positive line, ahead of U1. U1's on-board 78M05 derives the +5 V logic</tspan><tspan x="75" dy="17.94">rail from that same switched line, so opening either device de-energises the MCU, the sensor</tspan><tspan x="75" dy="17.94">array and the motors together — no path keeps logic alive after a stop.</tspan><tspan x="75" dy="17.94"></tspan><tspan x="75" dy="17.94">SW1 latches: once struck, power cannot restore itself until an operator twists the head back out.</tspan><tspan x="75" dy="17.94"></tspan><tspan x="75" dy="17.94">Robo Grand Prix compliance: there is no radio, no Wi-Fi and no Bluetooth anywhere on this</tspan><tspan x="75" dy="17.94">schematic. SW3 (ARM) is pressed before the car is released; after that the only human input</tspan><tspan x="75" dy="17.94">available is SW1.</tspan></text></svg>